<svg xmlns="http://www.w3.org/2000/svg" width="128" height="128" viewBox="0 0 128 128">
    <g id="Group_20" data-name="Group 20" transform="translate(-3260 -4121)">
        <rect id="Rectangle_6" data-name="Rectangle 6" width="128" height="128" transform="translate(3260 4121)" fill="none" />
        <g id="splash" transform="translate(3306.425 4003.038)">
            <path id="Path_10" data-name="Path 10" d="M33.5,89.491H28.814a9.646,9.646,0,0,1-9.611-9.54V51.805L32.059,86.429a15.971,15.971,0,0,1,.6,1.591,4.243,4.243,0,0,0,.839,1.47Zm16.789-.019a10.282,10.282,0,0,1-4.169-.923,9.009,9.009,0,0,1-5.048-5.3L19.8,25.656a9.174,9.174,0,0,1,.361-7.243,9.062,9.062,0,0,1,5.407-4.888L61.736.57a9.661,9.661,0,0,1,7.39.355,9.024,9.024,0,0,1,4.986,5.3L95.5,63.818a9.169,9.169,0,0,1-.36,7.243C94.558,72.3,93.776,73.3,88.425,75.7,82.812,78.219,72.06,82.291,53.563,88.9A9.972,9.972,0,0,1,50.289,89.473Zm5.6-32.289L43.427,60.917a14.26,14.26,0,0,0,5.106,7.13,16.382,16.382,0,0,0,8.224,2.965c.666.06,1.347.089,2.024.089a27.8,27.8,0,0,0,7.948-1.242A21.935,21.935,0,0,0,75.5,65.1a15.017,15.017,0,0,0,4.426-7.051,13.985,13.985,0,0,0-.194-7.942,11.5,11.5,0,0,0-4.277-6.276,15.3,15.3,0,0,0-6.309-2.584,67.736,67.736,0,0,0-8.488-.687,38.5,38.5,0,0,1-7.7-.7,4.2,4.2,0,0,1-3.3-2.9,4.12,4.12,0,0,1,.306-3.578,5.287,5.287,0,0,1,3.078-2.134,7.718,7.718,0,0,1,2.206-.347,5.734,5.734,0,0,1,2.243.444,5.14,5.14,0,0,1,2.832,3.079l12.667-3.8a15.673,15.673,0,0,0-3.317-5.473,13.7,13.7,0,0,0-5.123-3.335,17.913,17.913,0,0,0-6.334-1.106,26.79,26.79,0,0,0-7.629,1.219c-5.179,1.551-9.048,4.081-11.5,7.521a12.44,12.44,0,0,0-2.262,5.531,14.245,14.245,0,0,0,.614,6.228A12.173,12.173,0,0,0,41.8,47.76,14.919,14.919,0,0,0,48.161,50.4a57.92,57.92,0,0,0,8.48.541h.71a46.606,46.606,0,0,1,4.773.193,10.309,10.309,0,0,1,3.531,1,4.383,4.383,0,0,1,1.607,6.233,6.759,6.759,0,0,1-3.743,2.4,7.711,7.711,0,0,1-2.2.347,5.64,5.64,0,0,1-2.335-.491,6.275,6.275,0,0,1-3.1-3.437ZM9.589,79.246h0L5.624,77.361A8.6,8.6,0,0,1,.578,72.119a9.455,9.455,0,0,1,.36-7.363l8.651-18.37Z" transform="translate(-30.425 136.962)" fill="#ef84c6" />
        </g>
    </g>
</svg>