<svg xmlns="http://www.w3.org/2000/svg" width="40.26" height="38.254" viewBox="0 0 40.26 38.254">
  <path id="playing_cards_FILL0_wght400_GRAD0_opsz24" d="M84.18-845.966l-1.661-.805a3.631,3.631,0,0,1-2.114-2.24,4.1,4.1,0,0,1,.151-3.147l3.625-7.854Zm8.055,4.38a3.838,3.838,0,0,1-2.844-1.208,3.962,3.962,0,0,1-1.183-2.87V-857.7l5.387,14.8a6.825,6.825,0,0,1,.252.68,1.821,1.821,0,0,0,.352.629Zm10.371-.252a4.041,4.041,0,0,1-3.121-.151,3.8,3.8,0,0,1-2.114-2.266l-8.911-24.619a3.975,3.975,0,0,1,.151-3.1,3.81,3.81,0,0,1,2.266-2.089l15.154-5.538a3.975,3.975,0,0,1,3.1.151,3.81,3.81,0,0,1,2.089,2.266l8.961,24.619a3.976,3.976,0,0,1-.151,3.1,3.81,3.81,0,0,1-2.266,2.089Zm-1.41-3.776,15.2-5.538-9.012-24.669-15.154,5.538Z" transform="translate(-80.16 879.84)" fill="#404040"/>
</svg>
