<svg xmlns="http://www.w3.org/2000/svg" width="75.394" height="75.75" viewBox="0 0 75.394 75.75">
  <path id="no_card" d="M96.637-826.033l-7.113-7.113v-39.742H52.539L46.315-880H89.524a6.849,6.849,0,0,1,5.023,2.089,6.849,6.849,0,0,1,2.089,5.023Zm1.778,21.782L46.849-855.817v39.831H89.524v-7.2l7.113,7.113v.089a6.849,6.849,0,0,1-2.089,5.023,6.849,6.849,0,0,1-5.023,2.089H46.849a6.849,6.849,0,0,1-5.023-2.089,6.849,6.849,0,0,1-2.089-5.023v-46.257L28-874.666l5.068-4.979,70.326,70.326ZM66.942-835.635Z" transform="translate(-28 880)" fill="#101110"/>
</svg>
