<svg xmlns="http://www.w3.org/2000/svg" width="35.366" height="35.366" viewBox="0 0 35.366 35.366">
  <path id="refresh" d="M177.683-764.634a17.066,17.066,0,0,1-12.544-5.139A17.067,17.067,0,0,1,160-782.317a17.067,17.067,0,0,1,5.139-12.544A17.067,17.067,0,0,1,177.683-800a17.5,17.5,0,0,1,7.294,1.575,16.85,16.85,0,0,1,5.968,4.5V-800h4.421v15.473H179.894v-4.421h9.284a12.9,12.9,0,0,0-4.835-4.863,13.1,13.1,0,0,0-6.659-1.768,12.79,12.79,0,0,0-9.394,3.868,12.79,12.79,0,0,0-3.868,9.394,12.79,12.79,0,0,0,3.868,9.394,12.79,12.79,0,0,0,9.394,3.868,12.958,12.958,0,0,0,7.681-2.431,12.84,12.84,0,0,0,4.808-6.41h4.642a17.452,17.452,0,0,1-6.3,9.56A17.15,17.15,0,0,1,177.683-764.634Z" transform="translate(-160 800)"/>
</svg>
