<svg xmlns="http://www.w3.org/2000/svg" width="90.744" height="50.568" viewBox="0 0 90.744 50.568">
  <path id="reveal" d="M58.876-679.954a28.048,28.048,0,0,1-10.2-1.889,26.562,26.562,0,0,1-8.765-5.566,27.659,27.659,0,0,1-7.231-11.111A39.869,39.869,0,0,1,30.435-711.8q0-8.307,4.125-13.491t11.951-5.233a15.233,15.233,0,0,1,2.868.264,16.359,16.359,0,0,1,2.767.793L75.855-720.6l23.711-8.862a16.356,16.356,0,0,1,2.767-.793,15.234,15.234,0,0,1,2.868-.264q7.8.048,11.891,5.233t4.088,13.491a39.743,39.743,0,0,1-2.254,13.254,27.86,27.86,0,0,1-7.219,11.135,26.887,26.887,0,0,1-8.777,5.554,27.919,27.919,0,0,1-10.19,1.9,20.766,20.766,0,0,1-10.99-2.847q-4.691-2.847-5.173-3.136H75.039q-.555.362-5.149,3.173a20.7,20.7,0,0,1-11.014,2.811Zm.024-8.7a14.55,14.55,0,0,0,7.012-1.754,29.76,29.76,0,0,0,6.027-4.3h7.736a29.76,29.76,0,0,0,6.027,4.3,14.55,14.55,0,0,0,7.012,1.754,20.318,20.318,0,0,0,7.159-1.3,16.8,16.8,0,0,0,6.126-3.97,20.172,20.172,0,0,0,4.979-8.231,31.708,31.708,0,0,0,1.5-9.644,13.27,13.27,0,0,0-1.824-7.2,6.146,6.146,0,0,0-5.752-2.819,14.851,14.851,0,0,0-2.365.452l-26.73,10.02-26.73-10.02a8.4,8.4,0,0,0-1.144-.327,6,6,0,0,0-1.245-.125,6.3,6.3,0,0,0-5.739,2.858,13.139,13.139,0,0,0-1.812,7.165,32.156,32.156,0,0,0,1.488,9.733,19.587,19.587,0,0,0,5.068,8.219,17.64,17.64,0,0,0,6.1,3.893A19.909,19.909,0,0,0,58.9-688.656Zm4.9-6.055a9.686,9.686,0,0,0,6.167-1.774A5.923,5.923,0,0,0,72.2-701.4q0-5.09-6.654-9.726a24.2,24.2,0,0,0-14.066-4.636,9.686,9.686,0,0,0-6.167,1.774,5.923,5.923,0,0,0-2.24,4.918q0,5.09,6.654,9.726A24.2,24.2,0,0,0,63.8-694.711Zm-.606-6.49a17.192,17.192,0,0,1-8.326-2.523q-4.491-2.523-5.3-5.147a7.958,7.958,0,0,1,1.161-.353,6.046,6.046,0,0,1,1.362-.151,16.946,16.946,0,0,1,8.326,2.574q4.491,2.574,5.3,5.2a5.3,5.3,0,0,1-1.161.3A8.947,8.947,0,0,1,63.192-701.2Zm24.626,6.591a24.028,24.028,0,0,0,14.066-4.686q6.654-4.686,6.654-9.777a6.125,6.125,0,0,0-2.19-4.968,9.459,9.459,0,0,0-6.218-1.824,24.028,24.028,0,0,0-14.066,4.686q-6.654,4.686-6.654,9.777a6.066,6.066,0,0,0,2.24,4.968A9.5,9.5,0,0,0,87.817-694.61Zm.606-6.591a7.989,7.989,0,0,1-1.312-.1,5.355,5.355,0,0,1-1.11-.3q.807-2.624,5.3-5.147a17.192,17.192,0,0,1,8.326-2.523,7.989,7.989,0,0,1,1.312.1,5.351,5.351,0,0,1,1.11.3q-.807,2.624-5.3,5.147A17.192,17.192,0,0,1,88.423-701.2ZM75.807-705.238Z" transform="translate(-30.435 730.522)" fill="#101110"/>
</svg>
