<svg xmlns="http://www.w3.org/2000/svg" width="39.255" height="39.255" viewBox="0 0 39.255 39.255">
  <path id="save_FILL0_wght400_GRAD0_opsz24" d="M159.255-831.277v26.17a4.2,4.2,0,0,1-1.281,3.08,4.2,4.2,0,0,1-3.08,1.281H124.362a4.2,4.2,0,0,1-3.08-1.281,4.2,4.2,0,0,1-1.281-3.08v-30.532a4.2,4.2,0,0,1,1.281-3.08,4.2,4.2,0,0,1,3.08-1.281h26.17Zm-4.362,1.854-6.215-6.215H124.362v30.532h30.532Zm-15.266,22.135a6.309,6.309,0,0,0,4.634-1.908,6.31,6.31,0,0,0,1.908-4.634,6.309,6.309,0,0,0-1.908-4.634,6.309,6.309,0,0,0-4.634-1.908,6.309,6.309,0,0,0-4.634,1.908,6.309,6.309,0,0,0-1.908,4.634,6.31,6.31,0,0,0,1.908,4.634A6.31,6.31,0,0,0,139.628-807.287Zm-13.085-17.447H146.17v-8.723H126.542Zm-2.181-4.689v0Z" transform="translate(-120 840)" fill="#404040"/>
</svg>
