<svg xmlns="http://www.w3.org/2000/svg" width="28" height="27.861" viewBox="0 0 28 27.861">
  <path id="settings_FILL0_wght400_GRAD0_opsz24" d="M88.169-852.139l-.557-4.458a5.281,5.281,0,0,1-.853-.418q-.4-.244-.784-.522L81.831-855.8,78-862.413l3.587-2.716a3.324,3.324,0,0,1-.035-.47v-.94a3.325,3.325,0,0,1,.035-.47L78-869.726l3.831-6.617,4.144,1.741a9.5,9.5,0,0,1,.8-.522,7.023,7.023,0,0,1,.836-.418L88.169-880h7.662l.557,4.458a5.291,5.291,0,0,1,.853.418q.4.244.784.522l4.144-1.741L106-869.726l-3.587,2.716a3.327,3.327,0,0,1,.035.47v.94a1.71,1.71,0,0,1-.07.47l3.587,2.716-3.831,6.617-4.109-1.741a9.467,9.467,0,0,1-.8.522,7,7,0,0,1-.836.418l-.557,4.458Zm2.438-2.786h2.751l.488-3.692a7.815,7.815,0,0,0,2-.818,8.33,8.33,0,0,0,1.689-1.306l3.448,1.428,1.358-2.368-3-2.264a4.918,4.918,0,0,0,.244-1.027,8.565,8.565,0,0,0,.07-1.1,8.564,8.564,0,0,0-.07-1.1,4.917,4.917,0,0,0-.244-1.027l3-2.264-1.358-2.368-3.448,1.463a7.739,7.739,0,0,0-1.689-1.341,7.81,7.81,0,0,0-2-.818l-.453-3.692H90.642l-.488,3.692a7.81,7.81,0,0,0-2,.818,8.33,8.33,0,0,0-1.689,1.306l-3.448-1.428-1.358,2.368,3,2.229a5.666,5.666,0,0,0-.244,1.045,8.446,8.446,0,0,0-.07,1.115,8.164,8.164,0,0,0,.07,1.08,5.669,5.669,0,0,0,.244,1.045l-3,2.264,1.358,2.368,3.448-1.463a7.742,7.742,0,0,0,1.689,1.341,7.815,7.815,0,0,0,2,.818Zm1.463-6.269a4.7,4.7,0,0,0,3.448-1.428,4.7,4.7,0,0,0,1.428-3.448,4.7,4.7,0,0,0-1.428-3.448,4.7,4.7,0,0,0-3.448-1.428,4.681,4.681,0,0,0-3.465,1.428,4.727,4.727,0,0,0-1.41,3.448,4.727,4.727,0,0,0,1.41,3.448A4.681,4.681,0,0,0,92.07-861.194ZM92-866.07Z" transform="translate(-78 880)" fill="#404040"/>
</svg>
