<svg xmlns="http://www.w3.org/2000/svg" width="161" height="150" viewBox="0 0 161 150">
  <g id="appiconfg" transform="translate(-159.575 -179.962)">
    <path d="M56.137,150H48.285a16.167,16.167,0,0,1-16.107-15.99V86.829l21.544,58.038a26.776,26.776,0,0,1,1.006,2.666A7.112,7.112,0,0,0,56.134,150Zm28.133-.032a17.227,17.227,0,0,1-6.992-1.548,15.1,15.1,0,0,1-8.457-8.883L33.184,43a15.38,15.38,0,0,1,.6-12.14,15.187,15.187,0,0,1,9.06-8.193L103.452.955a16.186,16.186,0,0,1,12.384.593,15.125,15.125,0,0,1,8.356,8.883l35.839,96.535a15.372,15.372,0,0,1-.6,12.14c-.975,2.082-2.285,3.747-11.251,7.774-9.407,4.224-27.423,11.051-58.414,22.135A16.708,16.708,0,0,1,84.27,149.968Zm9.383-54.121-20.882,6.259a23.9,23.9,0,0,0,8.556,11.951,27.447,27.447,0,0,0,13.782,4.971c1.117.1,2.258.152,3.392.152a46.572,46.572,0,0,0,13.319-2.086,36.754,36.754,0,0,0,14.7-7.974A25.172,25.172,0,0,0,133.941,97.3a23.446,23.446,0,0,0-.326-13.312c-1.466-4.7-3.877-8.242-7.168-10.52a25.638,25.638,0,0,0-10.573-4.334,113.477,113.477,0,0,0-14.223-1.15A64.5,64.5,0,0,1,88.74,66.814a7.042,7.042,0,0,1-5.53-4.863,6.906,6.906,0,0,1,.513-6,8.86,8.86,0,0,1,5.158-3.577,12.926,12.926,0,0,1,3.7-.581,9.606,9.606,0,0,1,3.758.745,8.614,8.614,0,0,1,4.744,5.159l21.227-6.363a26.271,26.271,0,0,0-5.558-9.174,22.957,22.957,0,0,0-8.582-5.593,30.01,30.01,0,0,0-10.613-1.854,44.877,44.877,0,0,0-12.79,2.043C76.084,39.361,69.6,43.6,65.484,49.366a20.852,20.852,0,0,0-3.791,9.271,23.881,23.881,0,0,0,1.028,10.439c1.537,4.927,4,8.619,7.31,10.972A25,25,0,0,0,80.7,84.476a97.033,97.033,0,0,0,14.21.907q.612,0,1.2,0a78.077,78.077,0,0,1,8,.324,17.273,17.273,0,0,1,5.916,1.671,7.347,7.347,0,0,1,2.694,10.448,11.327,11.327,0,0,1-6.27,4.032,12.918,12.918,0,0,1-3.692.581,9.45,9.45,0,0,1-3.912-.823A10.516,10.516,0,0,1,93.653,95.847ZM16.069,132.826h0l-6.642-3.157A14.419,14.419,0,0,1,.97,120.882a15.852,15.852,0,0,1,.6-12.338l14.5-30.8v55.078Z" transform="translate(159.575 179.962)" fill="#EF84C6"/>
  </g>
</svg>
